# xmcd
#
# Track frame offsets:
#	150
#	22778
#	41011
#	55612
#	70031
#	92845
#	111886
#	129263
#	151319
#	172124
#	190246
#	210373
#	242161
#	267001
#	292725
#
# Disc length: 4356
#
# Revision: 1
# Processed by: cddbd v1.5.1PL0 Copyright (c) Steve Scherf et al.
# Submitted via: CDex 1.40Release
# Normalized: r0:DSETVAR1,TDELIM( - )
#
DISCID=c011020f
DTITLE=Various Artist - Monday Nite Blues #70
DYEAR=1900
DGENRE=Blues
TTITLE0=DAVID BRINSTON - PARTY TILL THE LITES GO OUT
TTITLE1=O.B.BUCHANA - I GOT CAUGHT
TTITLE2=QUINN GOLDEN - DO YOU CAUGHT FREAK?
TTITLE3=SIR CHARLES JONES - LETS GET IT ON
TTITLE4=ANN NESBY - PUT IT ON PAPER
TTITLE5=FLOYD TAYLOR - OLD SCHOOL STYLE
TTITLE6=LUTHER JACKEY - U MAKE ME WANNA FIRE MY WIFE
TTITLE7=STEPHANIE MCDEE - MONKEY TALK
TTITLE8=ANTHONY WATSON - PUT IT ON YA
TTITLE9=JACKIE NEAL - MONEY CAN'T BUY ME LOVE
TTITLE10=STAN MOSLEY - YOUR WIFE IS MY WOMAN
TTITLE11=ALFIE FRACTION - SHOULD I DO RIGHT OR WRONG
TTITLE12=JIMMY LEWIS - YOU SAID IT, NO I DIDN'T
TTITLE13=BETTY WRIGHT - CHURCH IS OUT
TTITLE14=JEFF FLOYD - I FOUND LOVE
EXTD=ID3G: 0
EXTT0=
EXTT1=
EXTT2=
EXTT3=
EXTT4=
EXTT5=
EXTT6=
EXTT7=
EXTT8=
EXTT9=
EXTT10=
EXTT11=
EXTT12=
EXTT13=
EXTT14=
PLAYORDER=
